# xmcd
#
# Track frame offsets: 
#        150
#        21420
#        40450
#        64317
#        91575
#        109130
#        124797
#        145460
#        177450
#        192790
#        211502
#        231392
#
# Disc length: 3212 seconds
#
# Revision: 0
# Processed by: cddbd v1.5.1PL0 Copyright (c) Steve Scherf et al.
# Submitted via: ExactAudioCopy v0.95b2
#
DISCID=ac0c8a0c
DTITLE=The Lowcountry Boil Bluegrass Band - Break Me Off Some Bluegras
DTITLE=s
DYEAR=1999
DGENRE=Bluegrass
TTITLE0=Shamrockin'
TTITLE1=My Time to Fly
TTITLE2=Take a Look Around
TTITLE3=Once Upon a Time
TTITLE4=The Fall
TTITLE5=Sibling Rivalry
TTITLE6=Workin' My Troubles Away
TTITLE7=The Final Page
TTITLE8=Lowcountry Boil (with Salsa on the Side)
TTITLE9=Lord, What Do You Say?
TTITLE10=Twanghai Surprise
TTITLE11=Change My Jeans
EXTD=
EXTT0=
EXTT1=
EXTT2=
EXTT3=
EXTT4=
EXTT5=
EXTT6=
EXTT7=
EXTT8=
EXTT9=
EXTT10=
EXTT11=
PLAYORDER=
